<svg version="1.1" id="Layer_1" xmlns="http://www.w3.org/2000/svg" xmlns:xlink="http://www.w3.org/1999/xlink" x="0px" y="0px"
	 width="100%" viewBox="0 0 1000 1000" enable-background="new 0 0 1000 1000" xml:space="preserve">
<path fill="#111F51" opacity="1.000000" stroke="none" 
	d="
M538.000000,1001.000000 
	C358.666656,1001.000000 179.833328,1001.000000 1.000000,1001.000000 
	C1.000000,667.666687 1.000000,334.333344 1.000000,1.000000 
	C334.333344,1.000000 667.666687,1.000000 1001.000000,1.000000 
	C1001.000000,334.333344 1001.000000,667.666687 1001.000000,1001.000000 
	C846.833313,1001.000000 692.666687,1001.000000 538.000000,1001.000000 
M430.629211,433.996613 
	C429.001251,441.076965 428.999817,441.043152 421.355103,441.367371 
	C419.927673,441.427887 418.516907,441.881256 417.098450,442.153320 
	C417.136658,442.667175 417.174896,443.181030 417.213104,443.694916 
	C421.045288,443.898132 424.877441,444.101379 428.838745,444.311462 
	C430.038483,449.094208 431.199005,453.720428 432.459045,458.743561 
	C435.487701,456.287201 432.630554,450.642761 438.532654,451.363525 
	C439.883301,462.774567 441.221497,474.080414 442.559692,485.386292 
	C443.101532,485.357056 443.643341,485.327789 444.185181,485.298553 
	C444.864594,479.087524 445.544006,472.876526 446.134308,467.480042 
	C448.400391,466.728729 450.148529,466.149139 452.263000,465.448090 
	C453.528809,476.249542 454.860138,487.610260 456.191498,498.970978 
	C456.694489,498.986420 457.197449,499.001862 457.700439,499.017273 
	C458.060211,497.020752 458.540558,495.037354 458.759460,493.025513 
	C459.889801,482.637268 460.113556,471.993195 467.825043,464.239838 
	C468.979675,465.547180 470.658386,467.447968 473.148590,470.267578 
	C474.339905,462.851471 475.289093,456.942474 476.394348,450.062134 
	C481.433319,455.530670 476.962341,463.718323 483.871002,467.989624 
	C484.833893,464.655884 485.547302,462.185852 486.042847,460.470184 
	C488.176453,460.617645 489.830994,460.731995 491.509857,460.848022 
	C493.957428,465.178375 496.585175,469.827545 499.541138,475.057343 
	C500.205231,471.198578 500.774261,467.892456 501.343262,464.586304 
	C501.698730,464.505920 502.054199,464.425537 502.409668,464.345154 
	C503.602844,466.494476 504.796021,468.643829 506.479767,471.676819 
	C507.657867,467.545654 508.596558,464.254059 509.535248,460.962494 
	C509.907684,461.006348 510.280090,461.050201 510.652527,461.094055 
	C512.781128,471.057678 514.909790,481.021301 517.038391,490.984894 
	C517.555359,490.944763 518.072327,490.904633 518.589294,490.864502 
	C522.535583,477.789032 526.481812,464.713562 530.558777,451.205292 
	C532.612854,452.744781 534.026306,453.804077 535.366699,454.808685 
	C536.877808,453.839386 538.169922,453.010559 539.898376,451.901886 
	C541.170898,463.692932 542.372620,474.827301 543.574280,485.961639 
	C544.124023,485.992493 544.673828,486.023346 545.223572,486.054199 
	C547.502441,474.543182 549.781311,463.032166 552.060181,451.521118 
	C552.782959,451.380554 553.505676,451.239990 554.228455,451.099396 
	C555.837891,454.065277 557.447388,457.031128 559.176880,460.218140 
	C560.424133,458.433289 561.595276,456.757416 562.325928,455.711792 
	C565.079712,458.690735 567.732788,461.560730 571.305786,465.425873 
	C572.526917,457.179077 573.469482,450.813477 574.430908,444.320801 
	C578.128723,444.097168 581.459717,443.895721 584.790649,443.694244 
	C584.826172,443.179504 584.861694,442.664795 584.897156,442.150055 
	C583.479858,441.873749 582.000732,441.189636 580.656189,441.393372 
	C575.485901,442.177063 573.622559,439.894348 573.369568,434.937561 
	C573.136841,430.377106 572.164978,425.854309 571.518738,421.314941 
	C571.080627,421.170502 570.642578,421.026062 570.204468,420.881622 
	C567.623352,423.828918 565.042175,426.776184 562.417847,429.772797 
	C561.478882,428.488800 560.264832,426.828674 558.797119,424.821716 
	C556.715332,428.199677 558.222839,433.769836 551.980652,433.659912 
	C549.720947,422.143768 547.466980,410.657074 545.213074,399.170410 
	C544.679810,399.185120 544.146545,399.199860 543.613220,399.214569 
	C542.375244,410.608368 541.137207,422.002136 539.854126,433.810242 
	C537.813538,432.509705 536.340332,431.570801 534.952332,430.686218 
	C533.429932,431.774261 532.160461,432.681519 530.475891,433.885468 
	C526.363464,420.306366 522.411682,407.257385 518.459839,394.208405 
	C517.981934,394.267609 517.504089,394.326813 517.026245,394.386017 
	C514.908142,404.323334 512.790100,414.260620 510.671997,424.197937 
	C510.322998,424.203247 509.973999,424.208557 509.625000,424.213867 
	C508.589752,420.998199 507.554504,417.782562 506.346436,414.030029 
	C504.645966,417.026703 503.424561,419.179108 501.573517,422.441101 
	C500.764954,417.578217 500.199982,414.180298 499.635010,410.782349 
	C497.619843,413.430939 496.952850,416.135345 495.638092,418.475861 
	C494.394836,420.689148 492.471313,422.520325 490.734161,424.658478 
	C489.690155,424.719177 487.912170,424.822601 486.047150,424.931061 
	C485.430847,422.828583 484.745789,420.491547 483.879486,417.536224 
	C476.484894,421.588318 481.985748,430.504303 476.288910,435.140808 
	C475.239380,428.449036 474.274292,422.295715 473.108337,414.861664 
	C470.638824,417.817596 469.043610,419.727020 467.320801,421.789215 
	C465.455017,414.639221 458.697937,409.368011 459.825714,401.074402 
	C460.019226,399.651276 459.397339,398.124268 459.197052,396.639191 
	C458.737335,393.230286 458.305389,389.817596 457.862152,386.406464 
	C457.292145,386.445831 456.722168,386.485199 456.152161,386.524536 
	C454.824249,397.987518 453.496307,409.450500 452.247681,420.229034 
	C450.063568,419.372528 448.182281,418.634796 446.171631,417.846283 
	C445.497589,412.185394 444.780670,406.164368 444.063721,400.143341 
	C443.616455,400.175781 443.169159,400.208191 442.721863,400.240601 
	C442.480164,401.322815 442.137268,402.393494 442.012756,403.489014 
	C440.978851,412.587463 440.045563,421.698090 438.904755,430.782806 
	C438.758667,431.946045 437.595215,432.981537 436.903046,434.076202 
	C436.063049,433.037689 435.018799,432.100311 434.440491,430.932281 
	C433.862671,429.765137 433.751099,428.367157 433.435120,427.070374 
	C433.023254,427.081116 432.611359,427.091858 432.199463,427.102600 
	C431.736786,429.132141 431.274078,431.161713 430.629211,433.996613 
M114.583466,604.020386 
	C120.575607,594.591492 120.823982,584.673096 115.740425,575.062317 
	C110.913177,565.936218 101.873695,565.194702 92.719406,565.435364 
	C85.727036,565.619263 78.730392,565.636536 71.736809,565.783081 
	C70.450737,565.810059 69.170219,566.101868 67.887138,566.271423 
	C67.715889,566.650208 67.544640,567.028992 67.373390,567.407776 
	C73.216286,568.459717 72.572502,572.842896 72.653206,576.584656 
	C72.843536,585.408203 72.904106,594.241577 72.693825,603.063293 
	C72.603378,606.858154 73.543434,611.460999 68.220634,613.112427 
	C68.060913,613.161926 68.152451,614.021301 68.094681,615.108521 
	C76.138657,615.108521 84.102669,615.039551 92.064972,615.126709 
	C101.179359,615.226379 108.585899,611.882690 114.583466,604.020386 
M403.391663,604.911133 
	C409.755371,617.876770 418.721527,619.111084 429.810822,610.510132 
	C430.035889,612.046875 430.223328,613.326782 430.375885,614.368408 
	C434.713806,614.368408 438.808350,614.368408 443.440491,614.368408 
	C438.192719,609.186401 438.156494,609.186462 438.139130,601.169067 
	C438.109680,587.562317 438.131042,573.955505 438.131042,559.597900 
	C433.533936,560.091187 428.515228,559.678772 423.144897,563.019897 
	C425.824097,564.181702 427.421661,564.874451 429.059906,565.584839 
	C429.059906,569.124084 429.059906,572.380371 429.059906,575.929810 
	C427.245819,575.788513 425.783661,575.619202 424.317444,575.569702 
	C416.412292,575.302979 409.930267,578.062561 405.667633,584.915466 
	C401.954865,590.884460 401.474426,597.409058 403.391663,604.911133 
M676.833923,560.441956 
	C674.825134,560.962341 672.816345,561.482727 669.898926,562.238525 
	C676.530579,566.475586 677.246094,568.599792 675.405823,575.785034 
	C674.590027,575.785034 673.760986,575.844971 672.942688,575.776245 
	C656.625122,574.405701 645.914368,587.308105 649.830383,603.365234 
	C652.992188,616.329895 668.231201,619.815186 675.286377,611.074646 
	C675.539246,610.761353 676.097778,610.694946 676.659546,610.449951 
	C676.905884,612.017151 677.122253,613.393311 677.290894,614.466187 
	C681.682495,614.466187 685.670898,614.466187 689.659241,614.466187 
	C683.893982,611.323608 685.087219,606.114502 685.019470,601.379944 
	C684.983704,598.884521 685.010254,596.388245 685.010193,593.892334 
	C685.009827,582.655457 685.010010,571.418518 685.010010,559.636536 
	C682.490540,559.850830 680.063232,560.057251 676.833923,560.441956 
M550.831604,614.515686 
	C550.297058,613.713806 549.723694,612.195251 549.233948,612.221741 
	C544.772400,612.463135 544.573120,609.600159 544.552368,606.360107 
	C544.484314,595.701538 544.292419,585.043396 544.313782,574.385376 
	C544.316345,573.135376 545.008911,571.367126 545.970093,570.737061 
	C548.753723,568.912476 556.677307,570.030518 559.274536,572.372253 
	C563.020508,575.749634 563.078674,580.072754 561.587524,584.349121 
	C559.928650,589.106689 556.019775,590.925171 551.231140,590.210144 
	C547.577271,589.664490 546.509277,591.359863 546.167419,595.839844 
	C551.646851,595.087219 557.186462,595.337830 561.784729,593.378906 
	C565.552795,591.773621 569.281799,588.077576 571.135559,584.363586 
	C576.129272,574.358398 569.617981,565.725647 557.207886,565.437622 
	C548.887817,565.244507 540.553711,565.608093 532.227783,565.804749 
	C531.456421,565.822876 530.699158,566.435486 528.609497,567.356140 
	C535.118530,568.343628 534.932678,572.251770 534.931030,576.108582 
	C534.927307,584.771729 535.042786,593.435547 534.958862,602.097656 
	C534.916321,606.487549 535.804199,611.404480 530.175293,613.536133 
	C530.111206,613.560425 530.258484,614.142700 530.370178,614.881836 
	C536.919922,614.881836 543.535645,614.881836 550.831604,614.515686 
M345.549957,577.817078 
	C344.410645,574.521179 343.421844,571.160950 342.053741,567.962952 
	C341.546997,566.778381 340.302612,565.428101 339.129578,565.099548 
	C335.534546,564.092407 330.128540,567.542175 328.671387,571.152771 
	C322.793762,585.716492 319.446930,601.397156 310.264557,614.612671 
	C314.734436,614.612671 319.758240,614.612671 326.153748,614.612671 
	C323.960480,612.806458 322.671692,611.745056 321.270081,610.590759 
	C322.380524,606.773071 323.240631,602.852417 324.731903,599.188721 
	C325.287659,597.823303 327.455627,596.037781 328.652466,596.198730 
	C333.454956,596.844299 339.452881,593.279907 342.855408,598.144836 
	C345.357727,601.722534 345.770630,606.761719 347.000916,610.778381 
	C345.225555,612.000305 343.953857,612.875549 341.484222,614.575317 
	C349.450867,614.575317 355.754974,614.575317 362.059082,614.575317 
	C356.811371,611.348999 356.011139,605.782104 354.113251,600.979065 
	C351.185486,593.569641 348.579742,586.032959 345.549957,577.817078 
M865.299866,575.237183 
	C861.199951,576.045471 857.099976,576.853699 852.534363,577.753784 
	C858.098450,582.960510 858.144409,582.959778 858.247192,589.445740 
	C858.318359,593.935974 858.344238,598.431946 858.198547,602.919067 
	C858.072327,606.808289 858.995239,611.202026 854.157043,613.332947 
	C854.019653,613.393372 854.205750,614.188171 854.221619,614.390991 
	C860.161194,614.390991 865.932434,614.390991 872.933838,614.390991 
	C870.541870,612.533325 868.248047,611.659302 868.067871,610.466187 
	C866.805786,602.107300 865.254089,593.473755 869.363342,585.606934 
	C870.424683,583.575317 874.611816,582.237244 877.298035,582.336792 
	C878.978638,582.399109 881.573059,585.560364 881.942810,587.651978 
	C882.802002,592.511108 882.625549,597.563171 882.746521,602.540039 
	C882.845215,606.600769 882.766602,610.665833 882.766602,614.559387 
	C887.749512,614.559387 891.777893,614.559387 895.806274,614.559387 
	C890.973267,611.301880 891.414917,606.530334 891.369873,601.958923 
	C891.323975,597.301086 891.419067,592.640991 891.320801,587.984680 
	C891.095703,577.316772 882.561890,572.308716 873.015930,577.224915 
	C871.317566,578.099609 869.719604,579.169128 868.023071,580.179810 
	C867.281372,578.305786 866.694702,576.823425 865.299866,575.237183 
M388.446564,576.942566 
	C387.053375,577.349976 385.660187,577.757324 382.889069,578.567688 
	C385.904144,580.009583 387.446320,580.747131 388.863770,581.424988 
	C389.139343,583.382507 389.680237,585.052673 389.547363,586.667419 
	C389.048462,592.731506 388.814789,598.884888 387.508209,604.789368 
	C386.746063,608.233582 383.265717,609.790222 379.520905,609.306030 
	C375.603210,608.799438 374.531982,605.730164 374.107300,602.493774 
	C373.763062,599.870544 373.876587,597.181641 373.864777,594.521484 
	C373.837067,588.273010 373.855896,582.024414 373.855896,575.107849 
	C368.756134,576.145508 364.224823,577.067505 359.693481,577.989502 
	C359.604004,578.544312 359.514526,579.099121 359.425018,579.653931 
	C365.010559,580.044250 365.005798,583.749084 364.971222,587.558472 
	C364.922882,592.881470 364.911804,598.206726 365.008331,603.528748 
	C365.185028,613.269836 373.371307,618.563538 382.285828,614.539246 
	C384.903900,613.357422 387.134918,611.318298 389.805847,609.492676 
	C389.969818,611.305298 390.113800,612.896606 390.256592,614.474854 
	C394.535553,614.474854 398.671082,614.474854 402.806610,614.474854 
	C403.232758,614.185486 403.658875,613.896057 404.085022,613.606689 
	C395.443695,610.942871 398.717834,604.474365 398.410370,599.401001 
	C397.942688,591.683960 398.287933,583.917603 398.287933,575.311157 
	C394.955963,575.873230 392.092133,576.356323 388.446564,576.942566 
M236.606339,597.524414 
	C236.606339,603.251282 236.606339,608.978088 236.606339,614.351807 
	C241.662277,614.351807 245.759705,614.351807 249.857117,614.351807 
	C244.341415,611.399048 245.254456,606.491943 245.164505,602.054810 
	C245.060043,596.901062 245.242722,591.740051 245.080963,586.589172 
	C244.848877,579.198608 239.970856,574.653259 232.687943,575.770203 
	C228.784103,576.368958 225.117462,578.514282 221.267715,579.990845 
	C221.108002,578.803528 220.880630,577.113159 220.594009,574.982483 
	C215.759125,575.926453 211.302536,576.796631 206.845947,577.666809 
	C206.462463,578.229248 206.078979,578.791687 205.695496,579.354126 
	C213.557297,579.697144 211.869919,584.836792 212.069183,588.865906 
	C212.282532,593.179382 212.219025,597.514587 212.090134,601.834778 
	C211.959290,606.220093 212.995483,611.111145 207.774414,613.692261 
	C207.726990,613.715759 207.939346,614.264771 207.984604,614.415649 
	C213.833054,614.415649 219.613449,614.415649 225.393845,614.415649 
	C225.811295,614.058533 226.228729,613.701355 226.646164,613.344238 
	C219.880447,611.901733 221.123001,607.173950 220.969681,603.064453 
	C220.864334,600.240967 220.775238,597.397705 220.989883,594.587036 
	C221.189880,591.968140 221.410721,589.233582 222.322495,586.813721 
	C223.692825,583.176819 226.651611,581.487610 230.654175,581.954224 
	C234.602386,582.414490 235.788513,585.231995 236.155701,588.583679 
	C236.444534,591.220337 236.465912,593.886292 236.606339,597.524414 
M717.288635,602.308655 
	C716.982788,603.080017 716.735474,603.881104 716.361267,604.617676 
	C714.588379,608.107544 711.795105,609.914734 707.839539,609.242676 
	C703.962708,608.583984 703.060181,605.443115 702.692139,602.193848 
	C702.374939,599.393616 702.314819,596.555664 702.287659,593.732971 
	C702.230774,587.815918 702.270386,581.897888 702.270386,575.211121 
	C697.443115,576.110718 692.759766,576.983459 688.076355,577.856262 
	C688.028870,578.416809 687.981384,578.977356 687.933838,579.537903 
	C693.221130,579.956177 693.516052,583.576172 693.559570,587.346375 
	C693.619202,592.505920 693.786438,597.667908 693.683960,602.824463 
	C693.583557,607.874695 694.948914,612.109131 699.691895,614.514038 
	C704.669800,617.038086 709.392639,615.921631 713.812805,612.942200 
	C715.227966,611.988281 716.542419,610.885010 718.223572,609.606140 
	C718.705566,611.768982 719.048096,613.305847 719.319031,614.521484 
	C723.592407,614.521484 727.457886,614.521484 731.323364,614.521484 
	C725.409302,611.626465 727.164124,606.442383 727.028381,601.959290 
	C726.942749,599.131653 727.010315,596.299316 727.010193,593.469116 
	C727.009827,587.556458 727.010071,581.643860 727.010071,575.085510 
	C721.772339,576.071350 717.314453,576.910400 712.856628,577.749451 
	C712.675232,578.289246 712.493835,578.828979 712.312439,579.368713 
	C718.978516,579.966248 718.150696,584.591858 718.151611,588.579651 
	C718.152588,592.892029 717.794250,597.204590 717.288635,602.308655 
M463.092468,597.305176 
	C465.207703,611.453735 475.659332,618.438843 489.742615,615.116150 
	C498.612671,613.023438 503.968018,606.322510 504.426605,596.742859 
	C504.895142,586.955872 500.029999,579.479675 491.340088,576.632751 
	C476.286224,571.700928 463.529480,580.631592 463.092468,597.305176 
M609.224731,609.257507 
	C615.228577,615.538025 622.599121,616.950256 630.783936,615.172546 
	C639.887756,613.195190 645.586853,606.133911 645.933228,596.592102 
	C646.289490,586.779419 640.948364,578.967712 632.119324,576.388489 
	C622.945251,573.708435 613.210327,576.570557 608.203247,583.419922 
	C603.122375,590.370178 603.355164,600.715637 609.224731,609.257507 
M814.410706,589.996338 
	C814.241455,592.479309 813.852478,594.970215 813.941589,597.443848 
	C814.293579,607.217041 820.959534,614.195862 831.171204,615.681274 
	C841.373474,617.165466 850.747498,612.102234 853.903259,603.403015 
	C857.929443,592.304626 853.049622,580.696167 842.759094,576.892273 
	C830.641785,572.413208 818.937561,577.566284 814.410706,589.996338 
M281.828339,580.736511 
	C278.664978,579.083801 275.662628,576.580444 272.306671,575.945374 
	C263.843323,574.343689 256.880707,577.653748 252.038025,584.706848 
	C247.290970,591.620605 247.260071,599.212402 250.867371,606.513123 
	C256.490173,617.893066 272.837708,619.147095 282.858673,609.111389 
	C283.926147,608.042297 284.210175,606.190979 284.857666,604.702576 
	C283.225769,605.064941 281.253601,604.964722 280.021667,605.870850 
	C275.038666,609.536133 269.687744,610.985840 264.211060,607.855957 
	C258.745239,604.732300 258.605896,598.995789 258.301422,592.969116 
	C267.338135,592.969116 275.926544,592.969116 286.199402,592.969116 
	C284.690643,588.489624 283.483643,584.906006 281.828339,580.736511 
M923.400085,609.113708 
	C919.374207,609.404663 915.181274,610.490479 911.384094,609.692810 
	C909.050903,609.202759 907.322815,605.831787 905.142212,603.566528 
	C903.574646,605.804321 901.724182,608.445923 899.871094,611.091309 
	C908.826050,617.169617 921.231567,617.540527 928.818176,612.149475 
	C932.440430,609.575500 934.658875,606.314636 934.170471,601.616943 
	C933.688354,596.979553 930.600464,594.594543 926.683655,593.174377 
	C922.787476,591.761841 918.571411,591.129822 914.838989,589.410217 
	C912.983459,588.555359 911.897095,586.031006 910.462708,584.261963 
	C912.355835,582.897827 914.132751,580.608215 916.165100,580.353027 
	C921.131897,579.729370 925.875977,580.789795 928.704651,587.272705 
	C930.185120,583.449036 931.211914,580.797180 932.485657,577.507568 
	C923.737122,575.421204 915.697205,573.967041 907.829956,578.413330 
	C904.312622,580.401245 901.869141,583.234741 902.052368,587.605774 
	C902.228516,591.807495 904.784424,594.330750 908.383667,595.782532 
	C912.691040,597.520203 917.161194,598.850952 921.491272,600.536743 
	C925.501465,602.097900 927.122375,604.633179 923.400085,609.113708 
M145.976578,583.682617 
	C149.358521,593.073853 152.818939,602.438110 156.070297,611.874329 
	C156.944397,614.411194 157.969055,615.839661 160.965881,615.493286 
	C163.531403,615.196899 165.892227,615.962097 167.206482,612.311584 
	C171.511185,600.354614 174.530960,587.837402 181.396042,577.273071 
	C177.435898,577.273071 173.223541,577.273071 168.945038,577.273071 
	C170.136703,579.219971 171.747498,580.665466 171.497711,581.628357 
	C169.172699,590.590515 166.527832,599.469727 163.975677,608.372986 
	C160.809082,601.078003 158.604782,593.777649 156.250824,586.525879 
	C155.146576,583.124084 153.607193,579.790161 157.861374,577.020447 
	C152.284088,577.020447 146.706802,577.020447 140.801239,577.020447 
	C142.762955,579.380066 144.243958,581.161438 145.976578,583.682617 
M739.946106,579.371399 
	C739.028870,580.086426 738.059509,580.744202 737.202454,581.525269 
	C728.907471,589.084290 727.744629,602.234680 734.680176,609.805115 
	C741.885559,617.670105 755.873352,617.887024 764.053223,610.404419 
	C766.606750,608.068481 766.509155,606.532715 763.376892,604.998474 
	C758.354248,609.678162 752.699768,610.972046 746.730469,607.929504 
	C740.801025,604.907349 739.406982,599.241577 739.643860,593.084961 
	C739.899719,586.434082 743.016113,582.089172 748.393188,580.597778 
	C753.804382,579.096863 757.309204,580.718811 761.695007,587.314270 
	C762.897156,583.812073 763.910339,580.860168 765.053650,577.529114 
	C756.322693,574.813354 748.319580,574.474670 739.946106,579.371399 
M774.758789,611.540894 
	C779.600891,617.110535 787.200562,617.370056 792.103943,612.035034 
	C792.772705,611.307373 792.934814,610.114075 793.331482,609.136353 
	C792.203552,608.928772 790.963623,608.309998 789.966309,608.581665 
	C784.394043,610.100159 782.489075,609.092468 782.251953,603.328003 
	C781.952637,596.050415 782.179688,588.751099 782.179688,581.692200 
	C785.379700,579.619934 791.536011,583.655579 791.636658,576.108398 
	C788.488831,576.108398 785.550964,576.108398 782.668274,576.108398 
	C781.327026,566.063354 781.327026,566.063354 773.129578,568.649841 
	C773.129578,570.816589 773.752380,573.375000 772.940063,575.340149 
	C772.242371,577.028137 769.904968,578.038330 767.641113,579.877625 
	C770.029785,580.577148 771.506958,581.009766 773.356995,581.551514 
	C773.356995,584.428589 773.263550,587.236328 773.375305,590.035889 
	C773.652771,596.981628 774.023804,603.923584 774.758789,611.540894 
M585.492920,614.900940 
	C588.506531,614.900940 591.520142,614.900940 594.533752,614.900940 
	C595.014160,614.379456 595.494568,613.857971 595.974976,613.336426 
	C586.701233,611.827881 589.487305,605.427124 589.107178,600.415771 
	C588.894836,597.616821 588.918274,594.696655 589.482849,591.964966 
	C590.442993,587.319336 592.114502,582.957153 597.991516,582.187622 
	C598.835388,583.557678 599.620972,584.833069 601.064026,587.175842 
	C602.626953,583.059570 603.803223,579.961670 605.070312,576.624634 
	C597.865662,573.678162 593.483032,577.999817 588.760437,582.393311 
	C588.274170,579.558838 587.902100,577.390076 587.492126,575.000122 
	C582.952576,575.987183 578.928528,576.862122 574.904419,577.737061 
	C574.487366,578.246216 574.070312,578.755310 573.653198,579.264404 
	C582.311646,579.741638 579.615662,585.520020 580.251465,589.688843 
	C580.500000,591.318359 580.454895,593.029602 580.291565,594.678589 
	C579.635986,601.296753 582.506836,608.700195 576.075806,614.069824 
	C576.016602,614.119324 576.127075,614.371887 576.231689,614.900024 
	C578.954773,614.900024 581.755920,614.900024 585.492920,614.900940 
M808.507019,575.190918 
	C804.384583,576.027283 800.262146,576.863586 795.289856,577.872375 
	C798.078979,580.121887 800.939209,581.349060 800.954529,582.610901 
	C801.084290,593.276611 804.969666,604.475891 797.508179,614.455261 
	C803.138062,614.455261 809.002502,614.455261 814.866943,614.455261 
	C815.319824,614.081299 815.772766,613.707275 816.225647,613.333313 
	C810.045044,612.226501 810.513672,608.038147 810.501404,604.237549 
	C810.475098,596.094543 810.716492,587.950500 810.671448,579.807861 
	C810.662964,578.275940 809.833008,576.748596 808.507019,575.190918 
M190.699738,603.408508 
	C189.562958,607.184448 188.426163,610.960449 187.347839,614.542236 
	C192.194275,614.542236 198.012115,614.542236 202.923615,614.542236 
	C201.749786,611.172119 200.317703,608.105957 199.670898,604.882263 
	C199.125168,602.162292 199.464645,599.259583 199.458191,596.437622 
	C199.442368,589.513977 199.453033,582.590332 199.453033,574.821777 
	C194.605408,575.797485 189.932877,576.737976 185.260330,577.678467 
	C185.145065,578.178223 185.029800,578.678040 184.914536,579.177856 
	C191.181641,580.214844 190.704056,584.762878 190.749969,588.987976 
	C190.798660,593.470093 190.749512,597.953369 190.699738,603.408508 
M125.592712,614.963074 
	C130.959793,614.963074 136.326859,614.963074 141.693939,614.963074 
	C141.918106,614.614014 142.142273,614.264954 142.366425,613.915894 
	C134.936172,610.190063 137.388840,603.587280 137.152191,597.913391 
	C136.842697,590.492798 137.076355,583.049561 137.076355,574.851257 
	C132.301208,575.797058 127.603912,576.727478 122.906616,577.657837 
	C122.757141,578.191467 122.607666,578.725098 122.458191,579.258728 
	C129.046585,579.831360 128.224503,584.417419 128.260483,588.417358 
	C128.311432,594.078613 128.298019,599.745850 128.080505,605.401672 
	C127.974731,608.152222 129.040726,611.753174 124.549210,612.477600 
	C124.513512,612.483337 124.729645,614.050537 125.592712,614.963074 
M459.856903,596.487183 
	C459.856903,589.439270 459.856903,582.391296 459.856903,574.965271 
	C455.327545,575.725647 451.419189,576.329285 447.541199,577.088135 
	C446.945618,577.204773 446.101807,578.019714 446.079742,578.541504 
	C446.058136,579.053040 446.931915,579.608948 447.424530,580.134277 
	C448.545258,581.329407 450.730042,582.611572 450.634003,583.694336 
	C449.722382,593.968750 454.727509,605.065247 446.444977,614.591187 
	C452.440979,614.591187 458.245850,614.591187 464.272430,614.591187 
	C459.900665,607.472412 459.899017,607.472412 459.864502,601.964294 
	C459.855133,600.469666 459.859100,598.974854 459.856903,596.487183 
M460.414978,564.447632 
	C459.778748,560.459534 457.584686,558.186584 453.602753,559.873047 
	C452.070923,560.521851 450.277008,563.293701 450.542023,564.743713 
	C450.867706,566.525574 453.400055,569.345825 454.659760,569.187134 
	C456.692352,568.930969 458.464417,566.607239 460.414978,564.447632 
M128.120544,566.553345 
	C129.998993,569.604431 132.797180,570.788208 135.553589,568.455383 
	C136.904907,567.311768 137.817642,564.097839 137.166611,562.573486 
	C136.505432,561.025391 133.593811,559.436462 131.812103,559.585938 
	C128.511765,559.862854 127.368362,562.609131 128.120544,566.553345 
M810.888245,566.000244 
	C811.524719,561.936035 809.794739,559.303650 805.707947,559.388245 
	C802.501648,559.454468 800.503479,561.853210 801.160034,565.150452 
	C801.457336,566.643860 803.215149,568.960999 804.288513,568.949036 
	C806.401184,568.925354 808.498535,567.535950 810.888245,566.000244 
M195.404968,569.559998 
	C198.652222,568.937256 200.728806,566.958801 199.883835,563.715271 
	C199.443024,562.023193 197.402405,559.853821 195.817261,559.605652 
	C194.233841,559.357605 191.463364,560.802490 190.713425,562.271179 
	C188.795441,566.027344 190.748657,568.515320 195.404968,569.559998 
z"/>
<path fill="#18B7C8" opacity="1.000000" stroke="none" 
	d="
M430.720306,433.593933 
	C431.274078,431.161713 431.736786,429.132141 432.199463,427.102600 
	C432.611359,427.091858 433.023254,427.081116 433.435120,427.070374 
	C433.751099,428.367157 433.862671,429.765137 434.440491,430.932281 
	C435.018799,432.100311 436.063049,433.037689 436.903076,434.076233 
	C437.595215,432.981537 438.758667,431.946045 438.904755,430.782806 
	C440.045563,421.698090 440.978851,412.587463 442.012756,403.489014 
	C442.137268,402.393494 442.480164,401.322815 442.721863,400.240601 
	C443.169159,400.208191 443.616455,400.175781 444.063721,400.143341 
	C444.780670,406.164368 445.497589,412.185394 446.171631,417.846283 
	C448.182281,418.634796 450.063568,419.372528 452.247681,420.229034 
	C453.496307,409.450500 454.824249,397.987518 456.152161,386.524536 
	C456.722168,386.485199 457.292145,386.445831 457.862152,386.406464 
	C458.305389,389.817596 458.737335,393.230286 459.197052,396.639191 
	C459.397339,398.124268 460.019226,399.651276 459.825714,401.074402 
	C458.697937,409.368011 465.455017,414.639221 467.320801,421.789215 
	C469.043610,419.727020 470.638824,417.817596 473.108337,414.861664 
	C474.274292,422.295715 475.239380,428.449036 476.288910,435.140808 
	C481.985748,430.504303 476.484894,421.588318 483.879486,417.536224 
	C484.745789,420.491547 485.430847,422.828583 486.047150,424.931061 
	C487.912170,424.822601 489.690155,424.719177 490.734161,424.658478 
	C492.471313,422.520325 494.394836,420.689148 495.638092,418.475861 
	C496.952850,416.135345 497.619843,413.430939 499.635010,410.782349 
	C500.199982,414.180298 500.764954,417.578217 501.573517,422.441101 
	C503.424561,419.179108 504.645966,417.026703 506.346436,414.030029 
	C507.554504,417.782562 508.589752,420.998199 509.625000,424.213867 
	C509.973999,424.208557 510.322998,424.203247 510.671997,424.197937 
	C512.790100,414.260620 514.908142,404.323334 517.026245,394.386017 
	C517.504089,394.326813 517.981934,394.267609 518.459839,394.208405 
	C522.411682,407.257385 526.363464,420.306366 530.475891,433.885468 
	C532.160461,432.681519 533.429932,431.774261 534.952332,430.686218 
	C536.340332,431.570801 537.813538,432.509705 539.854126,433.810242 
	C541.137207,422.002136 542.375244,410.608368 543.613220,399.214569 
	C544.146545,399.199860 544.679810,399.185120 545.213074,399.170410 
	C547.466980,410.657074 549.720947,422.143768 551.980652,433.659912 
	C558.222839,433.769836 556.715332,428.199677 558.797119,424.821716 
	C560.264832,426.828674 561.478882,428.488800 562.417847,429.772797 
	C565.042175,426.776184 567.623352,423.828918 570.204468,420.881622 
	C570.642578,421.026062 571.080627,421.170502 571.518738,421.314941 
	C572.164978,425.854309 573.136841,430.377106 573.369568,434.937561 
	C573.622559,439.894348 575.485901,442.177063 580.656189,441.393372 
	C582.000732,441.189636 583.479858,441.873749 584.897156,442.150055 
	C584.861694,442.664795 584.826172,443.179504 584.790649,443.694244 
	C581.459717,443.895721 578.128723,444.097168 574.430908,444.320801 
	C573.469482,450.813477 572.526917,457.179077 571.305786,465.425873 
	C567.732788,461.560730 565.079712,458.690735 562.325928,455.711792 
	C561.595276,456.757416 560.424133,458.433289 559.176880,460.218140 
	C557.447388,457.031128 555.837891,454.065277 554.228455,451.099396 
	C553.505676,451.239990 552.782959,451.380554 552.060181,451.521118 
	C549.781311,463.032166 547.502441,474.543182 545.223572,486.054199 
	C544.673828,486.023346 544.124023,485.992493 543.574280,485.961639 
	C542.372620,474.827301 541.170898,463.692932 539.898376,451.901886 
	C538.169922,453.010559 536.877808,453.839386 535.366699,454.808685 
	C534.026306,453.804077 532.612854,452.744781 530.558777,451.205292 
	C526.481812,464.713562 522.535583,477.789032 518.589294,490.864502 
	C518.072327,490.904633 517.555359,490.944763 517.038391,490.984894 
	C514.909790,481.021301 512.781128,471.057678 510.652527,461.094055 
	C510.280090,461.050201 509.907684,461.006348 509.535248,460.962494 
	C508.596558,464.254059 507.657867,467.545654 506.479767,471.676819 
	C504.796021,468.643829 503.602844,466.494476 502.409668,464.345154 
	C502.054199,464.425537 501.698730,464.505920 501.343262,464.586304 
	C500.774261,467.892456 500.205231,471.198578 499.541138,475.057343 
	C496.585175,469.827545 493.957428,465.178375 491.509857,460.848022 
	C489.830994,460.731995 488.176453,460.617645 486.042847,460.470184 
	C485.547302,462.185852 484.833893,464.655884 483.871002,467.989624 
	C476.962341,463.718323 481.433319,455.530670 476.394348,450.062134 
	C475.289093,456.942474 474.339905,462.851471 473.148590,470.267578 
	C470.658386,467.447968 468.979675,465.547180 467.825043,464.239838 
	C460.113556,471.993195 459.889801,482.637268 458.759460,493.025513 
	C458.540558,495.037354 458.060211,497.020752 457.700439,499.017273 
	C457.197449,499.001862 456.694489,498.986420 456.191498,498.970978 
	C454.860138,487.610260 453.528809,476.249542 452.263000,465.448090 
	C450.148529,466.149139 448.400391,466.728729 446.134308,467.480042 
	C445.544006,472.876526 444.864594,479.087524 444.185181,485.298553 
	C443.643341,485.327789 443.101532,485.357056 442.559692,485.386292 
	C441.221497,474.080414 439.883301,462.774567 438.532654,451.363525 
	C432.630554,450.642761 435.487701,456.287201 432.459045,458.743561 
	C431.199005,453.720428 430.038483,449.094208 428.838745,444.311462 
	C424.877441,444.101379 421.045288,443.898132 417.213104,443.694916 
	C417.174896,443.181030 417.136658,442.667175 417.098450,442.153320 
	C418.516907,441.881256 419.927673,441.427887 421.355103,441.367371 
	C428.999817,441.043152 429.001251,441.076965 430.720306,433.593933 
M544.049133,413.389923 
	C543.228088,421.259247 542.407043,429.128571 541.484131,437.974243 
	C538.729919,435.974487 536.830139,434.595123 534.992493,433.260803 
	C533.172546,434.817871 531.625061,436.141815 529.568726,437.901123 
	C525.778687,425.361633 522.252014,413.693298 518.725281,402.024963 
	C518.319031,402.034119 517.912842,402.043243 517.506592,402.052368 
	C515.287659,412.365295 513.068665,422.678192 510.849670,432.991119 
	C510.366028,432.980560 509.882416,432.970001 509.398804,432.959442 
	C508.496094,429.549286 507.593414,426.139130 506.628021,422.492157 
	C504.545044,424.358521 502.726807,425.987640 500.391510,428.080048 
	C499.692230,424.939178 499.216064,422.800323 498.739868,420.661499 
	C498.276611,420.511871 497.813354,420.362244 497.350067,420.212616 
	C495.723846,423.042053 494.097595,425.871490 492.341797,428.926361 
	C491.484985,428.509460 490.301147,427.933380 489.130249,427.363647 
	C488.187775,429.238342 487.447937,430.709930 486.122131,433.347046 
	C484.850098,429.031494 484.000885,426.150513 483.151703,423.269531 
	C481.538940,426.775421 481.272491,430.238434 480.282654,433.480591 
	C479.860443,434.863556 477.927643,435.785339 476.681274,436.916718 
	C475.744171,435.603210 474.315613,434.407959 473.965698,432.953217 
	C473.056946,429.175079 472.622437,425.282837 471.998657,421.436157 
	C471.657379,421.414734 471.316101,421.393341 470.974823,421.371918 
	C470.132629,423.859833 469.290466,426.347748 467.992859,430.180969 
	C466.777313,426.893951 466.050079,424.949493 465.339111,422.999084 
	C464.544220,420.818359 464.170380,417.055084 462.905182,416.729095 
	C458.139679,415.501312 459.392944,411.897308 458.866241,408.958252 
	C458.366943,406.172150 457.989899,403.364105 457.559113,400.565704 
	C457.244476,400.578796 456.929840,400.591858 456.615234,400.604950 
	C455.423523,410.676056 454.231812,420.747162 453.040131,430.818268 
	C452.571655,430.853882 452.103210,430.889526 451.634735,430.925140 
	C450.690094,427.726044 449.745453,424.526917 448.775513,421.242157 
	C447.392090,421.826630 446.258392,422.305603 444.585236,423.012512 
	C444.237122,420.001526 443.945404,417.478088 443.653687,414.954681 
	C443.413574,414.940033 443.173462,414.925385 442.933380,414.910767 
	C441.974945,422.511841 441.016541,430.112915 440.061737,437.685242 
	C437.102509,436.726410 434.857391,435.998962 432.369232,435.192780 
	C431.926056,437.653107 431.610046,439.407471 431.242889,441.445557 
	C478.288574,441.445557 524.980835,441.445557 571.646851,441.445557 
	C572.250305,433.017365 571.273560,430.094116 566.896362,427.318634 
	C565.888245,429.915100 564.896667,432.468933 563.673767,435.618530 
	C562.079712,433.627441 560.917114,432.175323 559.187073,430.014343 
	C559.467407,435.349304 555.980042,435.576508 553.005249,435.919891 
	C549.029358,436.378906 549.787354,432.745605 549.309998,430.648499 
	C547.981201,424.811279 547.041565,418.886139 545.900757,413.004974 
	C545.657593,411.751160 545.565002,411.769104 544.049133,413.389923 
M495.500092,443.788452 
	C474.143921,443.788452 452.787720,443.788452 430.969208,443.788452 
	C431.656830,446.474609 432.092896,448.178101 432.602600,450.169312 
	C435.147339,449.359558 437.328186,448.665588 440.103668,447.782379 
	C441.051086,455.363434 441.986328,462.847351 442.921600,470.331238 
	C443.159241,470.306763 443.396881,470.282318 443.634521,470.257843 
	C443.931763,467.848358 444.228973,465.438873 444.578094,462.608917 
	C446.316742,463.215088 447.542969,463.642609 448.774200,464.071899 
	C449.871490,460.568024 450.840881,457.472504 451.810272,454.377014 
	C452.233612,454.457916 452.656952,454.538849 453.080292,454.619751 
	C454.232880,464.543549 455.385468,474.467316 456.538055,484.391113 
	C458.170990,480.717957 458.588257,477.018555 459.131561,473.337769 
	C459.321838,472.048523 459.814484,469.708496 460.181824,469.705994 
	C465.219574,469.671295 463.831177,465.187622 465.161102,462.700897 
	C466.192291,460.772736 466.790314,458.612885 468.058014,455.314575 
	C469.311218,459.049042 470.104919,461.414215 470.898621,463.779358 
	C472.555481,460.275665 472.925110,456.730103 473.843323,453.332794 
	C474.312653,451.596405 475.765045,450.125702 476.773163,448.534943 
	C478.118042,450.169891 480.019226,451.610413 480.674927,453.486267 
	C481.613098,456.170319 481.640717,459.172607 482.057190,462.039001 
	C482.418640,462.066315 482.780090,462.093597 483.141541,462.120911 
	C484.035614,459.100159 484.929688,456.079376 486.096619,452.136810 
	C487.530518,454.757233 488.434113,456.408539 489.336975,458.058472 
	C490.645813,457.337006 491.713043,456.748688 492.089783,456.541046 
	C494.128235,459.637390 495.893311,462.318481 497.658417,464.999603 
	C498.072235,464.729492 498.486053,464.459381 498.899872,464.189301 
	C499.320770,462.134766 499.741669,460.080231 500.162567,458.025726 
	C500.825500,457.550171 501.488464,457.074615 502.151398,456.599060 
	C503.337494,458.938965 504.523590,461.278870 506.121338,464.430878 
	C507.593842,459.244232 508.595856,455.714844 509.597870,452.185425 
	C510.025940,452.215820 510.454010,452.246216 510.882080,452.276611 
	C513.095886,462.693054 515.309692,473.109497 517.523438,483.525940 
	C517.899963,483.533081 518.276428,483.540222 518.652954,483.547333 
	C522.258545,471.654266 525.864075,459.761200 529.629517,447.340973 
	C532.036682,449.355408 533.664856,450.717957 535.386963,452.159058 
	C537.240784,450.677246 538.957642,449.304871 541.444397,447.317078 
	C542.459229,456.667023 543.363953,465.002686 544.268738,473.338348 
	C545.764709,471.597839 546.415222,469.670776 546.820251,467.693451 
	C547.855286,462.641937 548.912903,457.588409 549.699646,452.495209 
	C550.157349,449.531433 551.898132,448.712189 554.227173,449.636292 
	C556.405090,450.500427 558.279541,452.129211 560.612976,453.630829 
	C561.032471,453.049408 562.053711,451.633942 563.527832,449.590881 
	C564.849487,452.871948 565.917236,455.522644 567.063477,458.368164 
	C572.927307,454.721405 571.209656,449.216492 572.063904,443.788452 
	C546.407288,443.788452 521.453735,443.788452 495.500092,443.788452 
z"/>
<path fill="#19CAD7" opacity="1.000000" stroke="none" 
	d="
M114.362633,604.306335 
	C108.585899,611.882690 101.179359,615.226379 92.064972,615.126709 
	C84.102669,615.039551 76.138657,615.108521 68.094681,615.108521 
	C68.152451,614.021301 68.060913,613.161926 68.220634,613.112427 
	C73.543434,611.460999 72.603378,606.858154 72.693825,603.063293 
	C72.904106,594.241577 72.843536,585.408203 72.653206,576.584656 
	C72.572502,572.842896 73.216286,568.459717 67.373390,567.407776 
	C67.544640,567.028992 67.715889,566.650208 67.887138,566.271423 
	C69.170219,566.101868 70.450737,565.810059 71.736809,565.783081 
	C78.730392,565.636536 85.727036,565.619263 92.719406,565.435364 
	C101.873695,565.194702 110.913177,565.936218 115.740425,575.062317 
	C120.823982,584.673096 120.575607,594.591492 114.362633,604.306335 
M108.924850,586.850159 
	C106.844429,573.596741 97.593109,567.488647 84.831573,571.207214 
	C83.635033,571.555847 82.183311,573.654114 82.154648,574.968445 
	C81.932961,585.130127 81.954712,595.300171 82.132004,605.463684 
	C82.154053,606.728149 83.298065,608.810242 84.313370,609.089050 
	C93.140831,611.513367 102.628700,610.298706 106.775764,599.893433 
	C108.270958,596.141907 108.274124,591.795654 108.924850,586.850159 
z"/>
<path fill="#19C8D6" opacity="1.000000" stroke="none" 
	d="
M403.263855,604.531372 
	C401.474426,597.409058 401.954865,590.884460 405.667633,584.915466 
	C409.930267,578.062561 416.412292,575.302979 424.317444,575.569702 
	C425.783661,575.619202 427.245819,575.788513 429.059906,575.929810 
	C429.059906,572.380371 429.059906,569.124084 429.059906,565.584839 
	C427.421661,564.874451 425.824097,564.181702 423.144897,563.019897 
	C428.515228,559.678772 433.533936,560.091187 438.131042,559.597900 
	C438.131042,573.955505 438.109680,587.562317 438.139130,601.169067 
	C438.156494,609.186462 438.192719,609.186401 443.440491,614.368408 
	C438.808350,614.368408 434.713806,614.368408 430.375885,614.368408 
	C430.223328,613.326782 430.035889,612.046875 429.810822,610.510132 
	C418.721527,619.111084 409.755371,617.876770 403.263855,604.531372 
M411.961548,599.023499 
	C412.054169,599.681641 412.072815,600.360474 412.250854,600.994629 
	C413.943909,607.025757 417.036469,609.812378 421.755951,609.383789 
	C427.287201,608.881348 428.620667,604.706726 429.162567,600.232849 
	C429.620544,596.451843 429.715790,592.613586 429.757446,588.798279 
	C429.840485,581.189697 427.862335,579.624817 420.243408,580.828491 
	C415.402832,581.593262 413.016724,584.815308 412.218994,589.192627 
	C411.689545,592.097961 411.964111,595.149780 411.961548,599.023499 
z"/>
<path fill="#19C8D6" opacity="1.000000" stroke="none" 
	d="
M677.234863,560.352844 
	C680.063232,560.057251 682.490540,559.850830 685.010010,559.636536 
	C685.010010,571.418518 685.009827,582.655457 685.010193,593.892334 
	C685.010254,596.388245 684.983704,598.884521 685.019470,601.379944 
	C685.087219,606.114502 683.893982,611.323608 689.659241,614.466187 
	C685.670898,614.466187 681.682495,614.466187 677.290894,614.466187 
	C677.122253,613.393311 676.905884,612.017151 676.659546,610.449951 
	C676.097778,610.694946 675.539246,610.761353 675.286377,611.074646 
	C668.231201,619.815186 652.992188,616.329895 649.830383,603.365234 
	C645.914368,587.308105 656.625122,574.405701 672.942688,575.776245 
	C673.760986,575.844971 674.590027,575.785034 675.405823,575.785034 
	C677.246094,568.599792 676.530579,566.475586 669.898926,562.238525 
	C672.816345,561.482727 674.825134,560.962341 677.234863,560.352844 
M672.507202,608.024475 
	C677.823303,602.397034 676.288757,595.309753 676.482300,588.661133 
	C676.700256,581.171814 674.895569,579.791626 667.446472,580.763123 
	C662.646118,581.389160 659.810913,584.364380 659.201721,588.776306 
	C658.623596,592.963501 658.550354,597.415405 659.325317,601.550293 
	C660.591370,608.305725 665.140137,610.505188 672.507202,608.024475 
z"/>
<path fill="#19C9D6" opacity="1.000000" stroke="none" 
	d="
M550.491455,614.698730 
	C543.535645,614.881836 536.919922,614.881836 530.370178,614.881836 
	C530.258484,614.142700 530.111206,613.560425 530.175293,613.536133 
	C535.804199,611.404480 534.916321,606.487549 534.958862,602.097656 
	C535.042786,593.435547 534.927307,584.771729 534.931030,576.108582 
	C534.932678,572.251770 535.118530,568.343628 528.609497,567.356140 
	C530.699158,566.435486 531.456421,565.822876 532.227783,565.804749 
	C540.553711,565.608093 548.887817,565.244507 557.207886,565.437622 
	C569.617981,565.725647 576.129272,574.358398 571.135559,584.363586 
	C569.281799,588.077576 565.552795,591.773621 561.784729,593.378906 
	C557.186462,595.337830 551.646851,595.087219 546.167419,595.839844 
	C546.509277,591.359863 547.577271,589.664490 551.231140,590.210144 
	C556.019775,590.925171 559.928650,589.106689 561.587524,584.349121 
	C563.078674,580.072754 563.020508,575.749634 559.274536,572.372253 
	C556.677307,570.030518 548.753723,568.912476 545.970093,570.737061 
	C545.008911,571.367126 544.316345,573.135376 544.313782,574.385376 
	C544.292419,585.043396 544.484314,595.701538 544.552368,606.360107 
	C544.573120,609.600159 544.772400,612.463135 549.233948,612.221741 
	C549.723694,612.195251 550.297058,613.713806 550.491455,614.698730 
z"/>
<path fill="#19C8D5" opacity="1.000000" stroke="none" 
	d="
M345.693665,578.183716 
	C348.579742,586.032959 351.185486,593.569641 354.113251,600.979065 
	C356.011139,605.782104 356.811371,611.348999 362.059082,614.575317 
	C355.754974,614.575317 349.450867,614.575317 341.484222,614.575317 
	C343.953857,612.875549 345.225555,612.000305 347.000916,610.778381 
	C345.770630,606.761719 345.357727,601.722534 342.855408,598.144836 
	C339.452881,593.279907 333.454956,596.844299 328.652466,596.198730 
	C327.455627,596.037781 325.287659,597.823303 324.731903,599.188721 
	C323.240631,602.852417 322.380524,606.773071 321.270081,610.590759 
	C322.671692,611.745056 323.960480,612.806458 326.153748,614.612671 
	C319.758240,614.612671 314.734436,614.612671 310.264557,614.612671 
	C319.446930,601.397156 322.793762,585.716492 328.671387,571.152771 
	C330.128540,567.542175 335.534546,564.092407 339.129578,565.099548 
	C340.302612,565.428101 341.546997,566.778381 342.053741,567.962952 
	C343.421844,571.160950 344.410645,574.521179 345.693665,578.183716 
M336.623840,579.003479 
	C335.821899,576.904907 335.019989,574.806335 333.719727,571.403625 
	C331.328522,578.675537 329.377045,584.610291 327.288696,590.961182 
	C332.153839,590.961182 336.031860,590.961182 340.609619,590.961182 
	C339.251282,586.870728 338.065460,583.299988 336.623840,579.003479 
z"/>
<path fill="#19C9D6" opacity="1.000000" stroke="none" 
	d="
M865.703979,575.289124 
	C866.694702,576.823425 867.281372,578.305786 868.023071,580.179810 
	C869.719604,579.169128 871.317566,578.099609 873.015930,577.224915 
	C882.561890,572.308716 891.095703,577.316772 891.320801,587.984680 
	C891.419067,592.640991 891.323975,597.301086 891.369873,601.958923 
	C891.414917,606.530334 890.973267,611.301880 895.806274,614.559387 
	C891.777893,614.559387 887.749512,614.559387 882.766602,614.559387 
	C882.766602,610.665833 882.845215,606.600769 882.746521,602.540039 
	C882.625549,597.563171 882.802002,592.511108 881.942810,587.651978 
	C881.573059,585.560364 878.978638,582.399109 877.298035,582.336792 
	C874.611816,582.237244 870.424683,583.575317 869.363342,585.606934 
	C865.254089,593.473755 866.805786,602.107300 868.067871,610.466187 
	C868.248047,611.659302 870.541870,612.533325 872.933838,614.390991 
	C865.932434,614.390991 860.161194,614.390991 854.221619,614.390991 
	C854.205750,614.188171 854.019653,613.393372 854.157043,613.332947 
	C858.995239,611.202026 858.072327,606.808289 858.198547,602.919067 
	C858.344238,598.431946 858.318359,593.935974 858.247192,589.445740 
	C858.144409,582.959778 858.098450,582.960510 852.534363,577.753784 
	C857.099976,576.853699 861.199951,576.045471 865.703979,575.289124 
z"/>
<path fill="#19C9D6" opacity="1.000000" stroke="none" 
	d="
M388.837433,576.890991 
	C392.092133,576.356323 394.955963,575.873230 398.287933,575.311157 
	C398.287933,583.917603 397.942688,591.683960 398.410370,599.401001 
	C398.717834,604.474365 395.443695,610.942871 404.085022,613.606689 
	C403.658875,613.896057 403.232758,614.185486 402.806610,614.474854 
	C398.671082,614.474854 394.535553,614.474854 390.256592,614.474854 
	C390.113800,612.896606 389.969818,611.305298 389.805847,609.492676 
	C387.134918,611.318298 384.903900,613.357422 382.285828,614.539246 
	C373.371307,618.563538 365.185028,613.269836 365.008331,603.528748 
	C364.911804,598.206726 364.922882,592.881470 364.971222,587.558472 
	C365.005798,583.749084 365.010559,580.044250 359.425018,579.653931 
	C359.514526,579.099121 359.604004,578.544312 359.693481,577.989502 
	C364.224823,577.067505 368.756134,576.145508 373.855896,575.107849 
	C373.855896,582.024414 373.837067,588.273010 373.864777,594.521484 
	C373.876587,597.181641 373.763062,599.870544 374.107300,602.493774 
	C374.531982,605.730164 375.603210,608.799438 379.520905,609.306030 
	C383.265717,609.790222 386.746063,608.233582 387.508209,604.789368 
	C388.814789,598.884888 389.048462,592.731506 389.547363,586.667419 
	C389.680237,585.052673 389.139343,583.382507 388.863770,581.424988 
	C387.446320,580.747131 385.904144,580.009583 382.889069,578.567688 
	C385.660187,577.757324 387.053375,577.349976 388.837433,576.890991 
z"/>
<path fill="#19C9D6" opacity="1.000000" stroke="none" 
	d="
M236.606216,597.031860 
	C236.465912,593.886292 236.444534,591.220337 236.155701,588.583679 
	C235.788513,585.231995 234.602386,582.414490 230.654175,581.954224 
	C226.651611,581.487610 223.692825,583.176819 222.322495,586.813721 
	C221.410721,589.233582 221.189880,591.968140 220.989883,594.587036 
	C220.775238,597.397705 220.864334,600.240967 220.969681,603.064453 
	C221.123001,607.173950 219.880447,611.901733 226.646164,613.344238 
	C226.228729,613.701355 225.811295,614.058533 225.393845,614.415649 
	C219.613449,614.415649 213.833054,614.415649 207.984604,614.415649 
	C207.939346,614.264771 207.726990,613.715759 207.774414,613.692261 
	C212.995483,611.111145 211.959290,606.220093 212.090134,601.834778 
	C212.219025,597.514587 212.282532,593.179382 212.069183,588.865906 
	C211.869919,584.836792 213.557297,579.697144 205.695496,579.354126 
	C206.078979,578.791687 206.462463,578.229248 206.845947,577.666809 
	C211.302536,576.796631 215.759125,575.926453 220.594009,574.982483 
	C220.880630,577.113159 221.108002,578.803528 221.267715,579.990845 
	C225.117462,578.514282 228.784103,576.368958 232.687943,575.770203 
	C239.970856,574.653259 244.848877,579.198608 245.080963,586.589172 
	C245.242722,591.740051 245.060043,596.901062 245.164505,602.054810 
	C245.254456,606.491943 244.341415,611.399048 249.857117,614.351807 
	C245.759705,614.351807 241.662277,614.351807 236.606339,614.351807 
	C236.606339,608.978088 236.606339,603.251282 236.606216,597.031860 
z"/>
<path fill="#19C8D6" opacity="1.000000" stroke="none" 
	d="
M717.440674,601.912842 
	C717.794250,597.204590 718.152588,592.892029 718.151611,588.579651 
	C718.150696,584.591858 718.978516,579.966248 712.312439,579.368713 
	C712.493835,578.828979 712.675232,578.289246 712.856628,577.749451 
	C717.314453,576.910400 721.772339,576.071350 727.010071,575.085510 
	C727.010071,581.643860 727.009827,587.556458 727.010193,593.469116 
	C727.010315,596.299316 726.942749,599.131653 727.028381,601.959290 
	C727.164124,606.442383 725.409302,611.626465 731.323364,614.521484 
	C727.457886,614.521484 723.592407,614.521484 719.319031,614.521484 
	C719.048096,613.305847 718.705566,611.768982 718.223572,609.606140 
	C716.542419,610.885010 715.227966,611.988281 713.812805,612.942200 
	C709.392639,615.921631 704.669800,617.038086 699.691895,614.514038 
	C694.948914,612.109131 693.583557,607.874695 693.683960,602.824463 
	C693.786438,597.667908 693.619202,592.505920 693.559570,587.346375 
	C693.516052,583.576172 693.221130,579.956177 687.933838,579.537903 
	C687.981384,578.977356 688.028870,578.416809 688.076355,577.856262 
	C692.759766,576.983459 697.443115,576.110718 702.270386,575.211121 
	C702.270386,581.897888 702.230774,587.815918 702.287659,593.732971 
	C702.314819,596.555664 702.374939,599.393616 702.692139,602.193848 
	C703.060181,605.443115 703.962708,608.583984 707.839539,609.242676 
	C711.795105,609.914734 714.588379,608.107544 716.361267,604.617676 
	C716.735474,603.881104 716.982788,603.080017 717.440674,601.912842 
z"/>
<path fill="#19C8D6" opacity="1.000000" stroke="none" 
	d="
M463.079590,596.865723 
	C463.529480,580.631592 476.286224,571.700928 491.340088,576.632751 
	C500.029999,579.479675 504.895142,586.955872 504.426605,596.742859 
	C503.968018,606.322510 498.612671,613.023438 489.742615,615.116150 
	C475.659332,618.438843 465.207703,611.453735 463.079590,596.865723 
M473.182098,589.034424 
	C471.829254,594.682983 471.808868,600.235229 474.655579,605.482788 
	C476.619354,609.102844 479.586151,611.161377 483.888489,611.112549 
	C488.173279,611.063843 491.686523,609.143311 492.904694,605.301758 
	C494.267029,601.005676 494.985321,596.276123 494.816925,591.778931 
	C494.577820,585.393433 490.240814,580.860291 485.074219,580.170593 
	C480.012268,579.494873 476.386627,582.025330 473.182098,589.034424 
z"/>
<path fill="#19C8D6" opacity="1.000000" stroke="none" 
	d="
M608.998413,608.977051 
	C603.355164,600.715637 603.122375,590.370178 608.203247,583.419922 
	C613.210327,576.570557 622.945251,573.708435 632.119324,576.388489 
	C640.948364,578.967712 646.289490,586.779419 645.933228,596.592102 
	C645.586853,606.133911 639.887756,613.195190 630.783936,615.172546 
	C622.599121,616.950256 615.228577,615.538025 608.998413,608.977051 
M615.938904,605.296082 
	C618.335815,609.752563 622.049194,611.780029 627.054749,610.960449 
	C631.914062,610.164673 634.901001,606.705688 635.587646,602.312866 
	C636.308289,597.702759 636.238403,592.728455 635.296631,588.164490 
	C634.285706,583.265808 630.570435,580.248413 625.216248,580.126038 
	C620.500183,580.018188 616.010254,582.805054 615.180725,588.110107 
	C614.344727,593.456604 615.366272,599.093506 615.938904,605.296082 
z"/>
<path fill="#19C9D6" opacity="1.000000" stroke="none" 
	d="
M814.542664,589.626831 
	C818.937561,577.566284 830.641785,572.413208 842.759094,576.892273 
	C853.049622,580.696167 857.929443,592.304626 853.903259,603.403015 
	C850.747498,612.102234 841.373474,617.165466 831.171204,615.681274 
	C820.959534,614.195862 814.293579,607.217041 813.941589,597.443848 
	C813.852478,594.970215 814.241455,592.479309 814.542664,589.626831 
M823.328491,591.225647 
	C823.659363,595.312561 823.397705,599.564026 824.475220,603.443604 
	C825.742371,608.006104 829.048035,611.078796 834.309631,611.098816 
	C839.058044,611.116943 843.155090,608.423889 844.568481,603.266357 
	C845.551880,599.678345 845.984253,595.716187 845.611694,592.027344 
	C844.885376,584.835999 840.600037,580.453369 835.014404,580.122864 
	C829.441833,579.793091 825.729187,583.124268 823.328491,591.225647 
z"/>
<path fill="#19C8D5" opacity="1.000000" stroke="none" 
	d="
M282.052490,581.029480 
	C283.483643,584.906006 284.690643,588.489624 286.199402,592.969116 
	C275.926544,592.969116 267.338135,592.969116 258.301422,592.969116 
	C258.605896,598.995789 258.745239,604.732300 264.211060,607.855957 
	C269.687744,610.985840 275.038666,609.536133 280.021667,605.870850 
	C281.253601,604.964722 283.225769,605.064941 284.857666,604.702576 
	C284.210175,606.190979 283.926147,608.042297 282.858673,609.111389 
	C272.837708,619.147095 256.490173,617.893066 250.867371,606.513123 
	C247.260071,599.212402 247.290970,591.620605 252.038025,584.706848 
	C256.880707,577.653748 263.843323,574.343689 272.306671,575.945374 
	C275.662628,576.580444 278.664978,579.083801 282.052490,581.029480 
M273.246307,580.923523 
	C265.577728,578.101807 260.208160,581.044922 259.235992,589.116882 
	C264.824860,588.804810 270.310608,588.498535 276.804749,588.135925 
	C275.532166,585.225281 274.703369,583.329651 273.246307,580.923523 
z"/>
<path fill="#19C8D5" opacity="1.000000" stroke="none" 
	d="
M923.746460,608.842651 
	C927.122375,604.633179 925.501465,602.097900 921.491272,600.536743 
	C917.161194,598.850952 912.691040,597.520203 908.383667,595.782532 
	C904.784424,594.330750 902.228516,591.807495 902.052368,587.605774 
	C901.869141,583.234741 904.312622,580.401245 907.829956,578.413330 
	C915.697205,573.967041 923.737122,575.421204 932.485657,577.507568 
	C931.211914,580.797180 930.185120,583.449036 928.704651,587.272705 
	C925.875977,580.789795 921.131897,579.729370 916.165100,580.353027 
	C914.132751,580.608215 912.355835,582.897827 910.462708,584.261963 
	C911.897095,586.031006 912.983459,588.555359 914.838989,589.410217 
	C918.571411,591.129822 922.787476,591.761841 926.683655,593.174377 
	C930.600464,594.594543 933.688354,596.979553 934.170471,601.616943 
	C934.658875,606.314636 932.440430,609.575500 928.818176,612.149475 
	C921.231567,617.540527 908.826050,617.169617 899.871094,611.091309 
	C901.724182,608.445923 903.574646,605.804321 905.142212,603.566528 
	C907.322815,605.831787 909.050903,609.202759 911.384094,609.692810 
	C915.181274,610.490479 919.374207,609.404663 923.746460,608.842651 
z"/>
<path fill="#19C6D4" opacity="1.000000" stroke="none" 
	d="
M145.850769,583.312744 
	C144.243958,581.161438 142.762955,579.380066 140.801239,577.020447 
	C146.706802,577.020447 152.284088,577.020447 157.861374,577.020447 
	C153.607193,579.790161 155.146576,583.124084 156.250824,586.525879 
	C158.604782,593.777649 160.809082,601.078003 163.975677,608.372986 
	C166.527832,599.469727 169.172699,590.590515 171.497711,581.628357 
	C171.747498,580.665466 170.136703,579.219971 168.945038,577.273071 
	C173.223541,577.273071 177.435898,577.273071 181.396042,577.273071 
	C174.530960,587.837402 171.511185,600.354614 167.206482,612.311584 
	C165.892227,615.962097 163.531403,615.196899 160.965881,615.493286 
	C157.969055,615.839661 156.944397,614.411194 156.070297,611.874329 
	C152.818939,602.438110 149.358521,593.073853 145.850769,583.312744 
z"/>
<path fill="#19C6D4" opacity="1.000000" stroke="none" 
	d="
M740.257385,579.177368 
	C748.319580,574.474670 756.322693,574.813354 765.053650,577.529114 
	C763.910339,580.860168 762.897156,583.812073 761.695007,587.314270 
	C757.309204,580.718811 753.804382,579.096863 748.393188,580.597778 
	C743.016113,582.089172 739.899719,586.434082 739.643860,593.084961 
	C739.406982,599.241577 740.801025,604.907349 746.730469,607.929504 
	C752.699768,610.972046 758.354248,609.678162 763.376892,604.998474 
	C766.509155,606.532715 766.606750,608.068481 764.053223,610.404419 
	C755.873352,617.887024 741.885559,617.670105 734.680176,609.805115 
	C727.744629,602.234680 728.907471,589.084290 737.202454,581.525269 
	C738.059509,580.744202 739.028870,580.086426 740.257385,579.177368 
z"/>
<path fill="#19C4D2" opacity="1.000000" stroke="none" 
	d="
M774.557983,611.203979 
	C774.023804,603.923584 773.652771,596.981628 773.375305,590.035889 
	C773.263550,587.236328 773.356995,584.428589 773.356995,581.551514 
	C771.506958,581.009766 770.029785,580.577148 767.641113,579.877625 
	C769.904968,578.038330 772.242371,577.028137 772.940063,575.340149 
	C773.752380,573.375000 773.129578,570.816589 773.129578,568.649841 
	C781.327026,566.063354 781.327026,566.063354 782.668274,576.108398 
	C785.550964,576.108398 788.488831,576.108398 791.636658,576.108398 
	C791.536011,583.655579 785.379700,579.619934 782.179688,581.692200 
	C782.179688,588.751099 781.952637,596.050415 782.251953,603.328003 
	C782.489075,609.092468 784.394043,610.100159 789.966309,608.581665 
	C790.963623,608.309998 792.203552,608.928772 793.331482,609.136353 
	C792.934814,610.114075 792.772705,611.307373 792.103943,612.035034 
	C787.200562,617.370056 779.600891,617.110535 774.557983,611.203979 
z"/>
<path fill="#19C6D4" opacity="1.000000" stroke="none" 
	d="
M585.024963,614.900513 
	C581.755920,614.900024 578.954773,614.900024 576.231689,614.900024 
	C576.127075,614.371887 576.016602,614.119324 576.075806,614.069824 
	C582.506836,608.700195 579.635986,601.296753 580.291565,594.678589 
	C580.454895,593.029602 580.500000,591.318359 580.251465,589.688843 
	C579.615662,585.520020 582.311646,579.741638 573.653198,579.264404 
	C574.070312,578.755310 574.487366,578.246216 574.904419,577.737061 
	C578.928528,576.862122 582.952576,575.987183 587.492126,575.000122 
	C587.902100,577.390076 588.274170,579.558838 588.760437,582.393311 
	C593.483032,577.999817 597.865662,573.678162 605.070312,576.624634 
	C603.803223,579.961670 602.626953,583.059570 601.064026,587.175842 
	C599.620972,584.833069 598.835388,583.557678 597.991516,582.187622 
	C592.114502,582.957153 590.442993,587.319336 589.482849,591.964966 
	C588.918274,594.696655 588.894836,597.616821 589.107178,600.415771 
	C589.487305,605.427124 586.701233,611.827881 595.974976,613.336426 
	C595.494568,613.857971 595.014160,614.379456 594.533752,614.900940 
	C591.520142,614.900940 588.506531,614.900940 585.024963,614.900513 
z"/>
<path fill="#19C8D6" opacity="1.000000" stroke="none" 
	d="
M808.944580,575.205017 
	C809.833008,576.748596 810.662964,578.275940 810.671448,579.807861 
	C810.716492,587.950500 810.475098,596.094543 810.501404,604.237549 
	C810.513672,608.038147 810.045044,612.226501 816.225647,613.333313 
	C815.772766,613.707275 815.319824,614.081299 814.866943,614.455261 
	C809.002502,614.455261 803.138062,614.455261 797.508179,614.455261 
	C804.969666,604.475891 801.084290,593.276611 800.954529,582.610901 
	C800.939209,581.349060 798.078979,580.121887 795.289856,577.872375 
	C800.262146,576.863586 804.384583,576.027283 808.944580,575.205017 
z"/>
<path fill="#19C8D5" opacity="1.000000" stroke="none" 
	d="
M190.721405,602.922302 
	C190.749512,597.953369 190.798660,593.470093 190.749969,588.987976 
	C190.704056,584.762878 191.181641,580.214844 184.914536,579.177856 
	C185.029800,578.678040 185.145065,578.178223 185.260330,577.678467 
	C189.932877,576.737976 194.605408,575.797485 199.453033,574.821777 
	C199.453033,582.590332 199.442368,589.513977 199.458191,596.437622 
	C199.464645,599.259583 199.125168,602.162292 199.670898,604.882263 
	C200.317703,608.105957 201.749786,611.172119 202.923615,614.542236 
	C198.012115,614.542236 192.194275,614.542236 187.347839,614.542236 
	C188.426163,610.960449 189.562958,607.184448 190.721405,602.922302 
z"/>
<path fill="#19C6D4" opacity="1.000000" stroke="none" 
	d="
M125.210449,614.925903 
	C124.729645,614.050537 124.513512,612.483337 124.549210,612.477600 
	C129.040726,611.753174 127.974731,608.152222 128.080505,605.401672 
	C128.298019,599.745850 128.311432,594.078613 128.260483,588.417358 
	C128.224503,584.417419 129.046585,579.831360 122.458191,579.258728 
	C122.607666,578.725098 122.757141,578.191467 122.906616,577.657837 
	C127.603912,576.727478 132.301208,575.797058 137.076355,574.851257 
	C137.076355,583.049561 136.842697,590.492798 137.152191,597.913391 
	C137.388840,603.587280 134.936172,610.190063 142.366425,613.915894 
	C142.142273,614.264954 141.918106,614.614014 141.693939,614.963074 
	C136.326859,614.963074 130.959793,614.963074 125.210449,614.925903 
z"/>
<path fill="#19C8D6" opacity="1.000000" stroke="none" 
	d="
M459.856934,596.983643 
	C459.859100,598.974854 459.855133,600.469666 459.864502,601.964294 
	C459.899017,607.472412 459.900665,607.472412 464.272430,614.591187 
	C458.245850,614.591187 452.440979,614.591187 446.444977,614.591187 
	C454.727509,605.065247 449.722382,593.968750 450.634003,583.694336 
	C450.730042,582.611572 448.545258,581.329407 447.424530,580.134277 
	C446.931915,579.608948 446.058136,579.053040 446.079742,578.541504 
	C446.101807,578.019714 446.945618,577.204773 447.541199,577.088135 
	C451.419189,576.329285 455.327545,575.725647 459.856903,574.965271 
	C459.856903,582.391296 459.856903,589.439270 459.856934,596.983643 
z"/>
<path fill="#19C4D2" opacity="1.000000" stroke="none" 
	d="
M460.380737,564.802246 
	C458.464417,566.607239 456.692352,568.930969 454.659760,569.187134 
	C453.400055,569.345825 450.867706,566.525574 450.542023,564.743713 
	C450.277008,563.293701 452.070923,560.521851 453.602753,559.873047 
	C457.584686,558.186584 459.778748,560.459534 460.380737,564.802246 
z"/>
<path fill="#19C4D2" opacity="1.000000" stroke="none" 
	d="
M128.032135,566.215271 
	C127.368362,562.609131 128.511765,559.862854 131.812103,559.585938 
	C133.593811,559.436462 136.505432,561.025391 137.166611,562.573486 
	C137.817642,564.097839 136.904907,567.311768 135.553589,568.455383 
	C132.797180,570.788208 129.998993,569.604431 128.032135,566.215271 
z"/>
<path fill="#19C6D4" opacity="1.000000" stroke="none" 
	d="
M810.745239,566.355835 
	C808.498535,567.535950 806.401184,568.925354 804.288513,568.949036 
	C803.215149,568.960999 801.457336,566.643860 801.160034,565.150452 
	C800.503479,561.853210 802.501648,559.454468 805.707947,559.388245 
	C809.794739,559.303650 811.524719,561.936035 810.745239,566.355835 
z"/>
<path fill="#19C6D4" opacity="1.000000" stroke="none" 
	d="
M195.031555,569.557556 
	C190.748657,568.515320 188.795441,566.027344 190.713425,562.271179 
	C191.463364,560.802490 194.233841,559.357605 195.817261,559.605652 
	C197.402405,559.853821 199.443024,562.023193 199.883835,563.715271 
	C200.728806,566.958801 198.652222,568.937256 195.031555,569.557556 
z"/>
<path fill="#112656" opacity="1.000000" stroke="none" 
	d="
M544.074219,413.024231 
	C545.565002,411.769104 545.657593,411.751160 545.900757,413.004974 
	C547.041565,418.886139 547.981201,424.811279 549.309998,430.648499 
	C549.787354,432.745605 549.029358,436.378906 553.005249,435.919891 
	C555.980042,435.576508 559.467407,435.349304 559.187073,430.014343 
	C560.917114,432.175323 562.079712,433.627441 563.673767,435.618530 
	C564.896667,432.468933 565.888245,429.915100 566.896362,427.318634 
	C571.273560,430.094116 572.250305,433.017365 571.646851,441.445557 
	C524.980835,441.445557 478.288574,441.445557 431.242889,441.445557 
	C431.610046,439.407471 431.926056,437.653107 432.369232,435.192780 
	C434.857391,435.998962 437.102509,436.726410 440.061737,437.685242 
	C441.016541,430.112915 441.974945,422.511841 442.933380,414.910767 
	C443.173462,414.925385 443.413574,414.940033 443.653687,414.954681 
	C443.945404,417.478088 444.237122,420.001526 444.585236,423.012512 
	C446.258392,422.305603 447.392090,421.826630 448.775513,421.242157 
	C449.745453,424.526917 450.690094,427.726044 451.634735,430.925140 
	C452.103210,430.889526 452.571655,430.853882 453.040131,430.818268 
	C454.231812,420.747162 455.423523,410.676056 456.615234,400.604950 
	C456.929840,400.591858 457.244476,400.578796 457.559113,400.565704 
	C457.989899,403.364105 458.366943,406.172150 458.866241,408.958252 
	C459.392944,411.897308 458.139679,415.501312 462.905182,416.729095 
	C464.170380,417.055084 464.544220,420.818359 465.339111,422.999084 
	C466.050079,424.949493 466.777313,426.893951 467.992859,430.180969 
	C469.290466,426.347748 470.132629,423.859833 470.974823,421.371918 
	C471.316101,421.393341 471.657379,421.414734 471.998657,421.436157 
	C472.622437,425.282837 473.056946,429.175079 473.965698,432.953217 
	C474.315613,434.407959 475.744171,435.603210 476.681274,436.916687 
	C477.927643,435.785339 479.860443,434.863556 480.282654,433.480591 
	C481.272491,430.238434 481.538940,426.775421 483.151703,423.269531 
	C484.000885,426.150513 484.850098,429.031494 486.122131,433.347046 
	C487.447937,430.709930 488.187775,429.238342 489.130249,427.363647 
	C490.301147,427.933380 491.484985,428.509460 492.341797,428.926361 
	C494.097595,425.871490 495.723846,423.042053 497.350067,420.212616 
	C497.813354,420.362244 498.276611,420.511871 498.739868,420.661499 
	C499.216064,422.800323 499.692230,424.939178 500.391510,428.080048 
	C502.726807,425.987640 504.545044,424.358521 506.628021,422.492157 
	C507.593414,426.139130 508.496094,429.549286 509.398804,432.959442 
	C509.882416,432.970001 510.366028,432.980560 510.849670,432.991119 
	C513.068665,422.678192 515.287659,412.365295 517.506592,402.052368 
	C517.912842,402.043243 518.319031,402.034119 518.725281,402.024963 
	C522.252014,413.693298 525.778687,425.361633 529.568726,437.901123 
	C531.625061,436.141815 533.172546,434.817871 534.992493,433.260803 
	C536.830139,434.595123 538.729919,435.974487 541.484131,437.974243 
	C542.407043,429.128571 543.228088,421.259247 544.074219,413.024231 
z"/>
<path fill="#112354" opacity="1.000000" stroke="none" 
	d="
M496.000122,443.788452 
	C521.453735,443.788452 546.407288,443.788452 572.063904,443.788452 
	C571.209656,449.216492 572.927307,454.721405 567.063477,458.368164 
	C565.917236,455.522644 564.849487,452.871948 563.527832,449.590881 
	C562.053711,451.633942 561.032471,453.049408 560.612976,453.630829 
	C558.279541,452.129211 556.405090,450.500427 554.227173,449.636292 
	C551.898132,448.712189 550.157349,449.531433 549.699646,452.495209 
	C548.912903,457.588409 547.855286,462.641937 546.820251,467.693451 
	C546.415222,469.670776 545.764709,471.597839 544.268738,473.338348 
	C543.363953,465.002686 542.459229,456.667023 541.444397,447.317078 
	C538.957642,449.304871 537.240784,450.677246 535.386963,452.159058 
	C533.664856,450.717957 532.036682,449.355408 529.629517,447.340973 
	C525.864075,459.761200 522.258545,471.654266 518.652954,483.547333 
	C518.276428,483.540222 517.899963,483.533081 517.523438,483.525940 
	C515.309692,473.109497 513.095886,462.693054 510.882080,452.276611 
	C510.454010,452.246216 510.025940,452.215820 509.597870,452.185425 
	C508.595856,455.714844 507.593842,459.244232 506.121338,464.430878 
	C504.523590,461.278870 503.337494,458.938965 502.151398,456.599060 
	C501.488464,457.074615 500.825500,457.550171 500.162567,458.025726 
	C499.741669,460.080231 499.320770,462.134766 498.899872,464.189301 
	C498.486053,464.459381 498.072235,464.729492 497.658417,464.999603 
	C495.893311,462.318481 494.128235,459.637390 492.089783,456.541046 
	C491.713043,456.748688 490.645813,457.337006 489.336975,458.058472 
	C488.434113,456.408539 487.530518,454.757233 486.096619,452.136810 
	C484.929688,456.079376 484.035614,459.100159 483.141541,462.120911 
	C482.780090,462.093597 482.418640,462.066315 482.057190,462.039001 
	C481.640717,459.172607 481.613098,456.170319 480.674927,453.486267 
	C480.019226,451.610413 478.118042,450.169891 476.773132,448.534912 
	C475.765045,450.125702 474.312653,451.596405 473.843323,453.332794 
	C472.925110,456.730103 472.555481,460.275665 470.898621,463.779358 
	C470.104919,461.414215 469.311218,459.049042 468.058014,455.314575 
	C466.790314,458.612885 466.192291,460.772736 465.161102,462.700897 
	C463.831177,465.187622 465.219574,469.671295 460.181824,469.705994 
	C459.814484,469.708496 459.321838,472.048523 459.131561,473.337769 
	C458.588257,477.018555 458.170990,480.717957 456.538055,484.391113 
	C455.385468,474.467316 454.232880,464.543549 453.080292,454.619751 
	C452.656952,454.538849 452.233612,454.457916 451.810272,454.377014 
	C450.840881,457.472504 449.871490,460.568024 448.774200,464.071899 
	C447.542969,463.642609 446.316742,463.215088 444.578094,462.608917 
	C444.228973,465.438873 443.931763,467.848358 443.634521,470.257843 
	C443.396881,470.282318 443.159241,470.306763 442.921600,470.331238 
	C441.986328,462.847351 441.051086,455.363434 440.103668,447.782379 
	C437.328186,448.665588 435.147339,449.359558 432.602600,450.169312 
	C432.092896,448.178101 431.656830,446.474609 430.969208,443.788452 
	C452.787720,443.788452 474.143921,443.788452 496.000122,443.788452 
z"/>
<path fill="#112153" opacity="1.000000" stroke="none" 
	d="
M108.941513,587.285522 
	C108.274124,591.795654 108.270958,596.141907 106.775764,599.893433 
	C102.628700,610.298706 93.140831,611.513367 84.313370,609.089050 
	C83.298065,608.810242 82.154053,606.728149 82.132004,605.463684 
	C81.954712,595.300171 81.932961,585.130127 82.154648,574.968445 
	C82.183311,573.654114 83.635033,571.555847 84.831573,571.207214 
	C97.593109,567.488647 106.844429,573.596741 108.941513,587.285522 
z"/>
<path fill="#112354" opacity="1.000000" stroke="none" 
	d="
M411.920166,598.579773 
	C411.964111,595.149780 411.689545,592.097961 412.218994,589.192627 
	C413.016724,584.815308 415.402832,581.593262 420.243408,580.828491 
	C427.862335,579.624817 429.840485,581.189697 429.757446,588.798279 
	C429.715790,592.613586 429.620544,596.451843 429.162567,600.232849 
	C428.620667,604.706726 427.287201,608.881348 421.755951,609.383789 
	C417.036469,609.812378 413.943909,607.025757 412.250854,600.994629 
	C412.072815,600.360474 412.054169,599.681641 411.920166,598.579773 
z"/>
<path fill="#112656" opacity="1.000000" stroke="none" 
	d="
M672.204468,608.247314 
	C665.140137,610.505188 660.591370,608.305725 659.325317,601.550293 
	C658.550354,597.415405 658.623596,592.963501 659.201721,588.776306 
	C659.810913,584.364380 662.646118,581.389160 667.446472,580.763123 
	C674.895569,579.791626 676.700256,581.171814 676.482300,588.661133 
	C676.288757,595.309753 677.823303,602.397034 672.204468,608.247314 
z"/>
<path fill="#112656" opacity="1.000000" stroke="none" 
	d="
M336.751770,579.366333 
	C338.065460,583.299988 339.251282,586.870728 340.609619,590.961182 
	C336.031860,590.961182 332.153839,590.961182 327.288696,590.961182 
	C329.377045,584.610291 331.328522,578.675537 333.719727,571.403625 
	C335.019989,574.806335 335.821899,576.904907 336.751770,579.366333 
z"/>
<path fill="#112253" opacity="1.000000" stroke="none" 
	d="
M473.313293,588.660950 
	C476.386627,582.025330 480.012268,579.494873 485.074219,580.170593 
	C490.240814,580.860291 494.577820,585.393433 494.816925,591.778931 
	C494.985321,596.276123 494.267029,601.005676 492.904694,605.301758 
	C491.686523,609.143311 488.173279,611.063843 483.888489,611.112549 
	C479.586151,611.161377 476.619354,609.102844 474.655579,605.482788 
	C471.808868,600.235229 471.829254,594.682983 473.313293,588.660950 
z"/>
<path fill="#112253" opacity="1.000000" stroke="none" 
	d="
M615.756348,604.949585 
	C615.366272,599.093506 614.344727,593.456604 615.180725,588.110107 
	C616.010254,582.805054 620.500183,580.018188 625.216248,580.126038 
	C630.570435,580.248413 634.285706,583.265808 635.296631,588.164490 
	C636.238403,592.728455 636.308289,597.702759 635.587646,602.312866 
	C634.901001,606.705688 631.914062,610.164673 627.054749,610.960449 
	C622.049194,611.780029 618.335815,609.752563 615.756348,604.949585 
z"/>
<path fill="#112253" opacity="1.000000" stroke="none" 
	d="
M823.435486,590.820801 
	C825.729187,583.124268 829.441833,579.793091 835.014404,580.122864 
	C840.600037,580.453369 844.885376,584.835999 845.611694,592.027344 
	C845.984253,595.716187 845.551880,599.678345 844.568481,603.266357 
	C843.155090,608.423889 839.058044,611.116943 834.309631,611.098816 
	C829.048035,611.078796 825.742371,608.006104 824.475220,603.443604 
	C823.397705,599.564026 823.659363,595.312561 823.435486,590.820801 
z"/>
<path fill="#112656" opacity="1.000000" stroke="none" 
	d="
M273.560425,581.178833 
	C274.703369,583.329651 275.532166,585.225281 276.804749,588.135925 
	C270.310608,588.498535 264.824860,588.804810 259.235992,589.116882 
	C260.208160,581.044922 265.577728,578.101807 273.560425,581.178833 
z"/>
</svg>